PathFileType	4	(X/Y/Z)	..\data\2014004\dynamic\2014004_C5_01.trc
DataRate	CameraRate	NumFrames	NumMarkers	Units	OrigDataRate	OrigDataStartFrame	OrigNumFrames
100.000000	100.000000	4	52	mm	100.000000	53	143
Frame#	Time	L_IAS			L_IPS			R_IPS			R_IAS			L_FTC			L_FLE			L_FME			L_FAX			L_TTC			L_FAL			L_TAM			L_FCC			L_FM1			L_FM2			L_FM5			R_FTC			R_FLE			R_FME			R_FAX			R_TTC			R_FAL			R_TAM			R_FCC			R_FM1			R_FM2			R_FM5			CV7			TV10			SXS			SJN			L_SIA			L_SRS			L_SAA			L_SAE			L_HLE			L_HME			L_UOA			L_RSP			L_UHE			L_HM2			L_HM5			R_SIA			R_SRS			R_SAA			R_SAE			R_HLE			R_HME			R_UOA			R_RSP			R_UHE			R_HM2			R_HM5			
		X1	Y1	Z1	X2	Y2	Z2	X3	Y3	Z3	X4	Y4	Z4	X5	Y5	Z5	X6	Y6	Z6	X7	Y7	Z7	X8	Y8	Z8	X9	Y9	Z9	X10	Y10	Z10	X11	Y11	Z11	X12	Y12	Z12	X13	Y13	Z13	X14	Y14	Z14	X15	Y15	Z15	X16	Y16	Z16	X17	Y17	Z17	X18	Y18	Z18	X19	Y19	Z19	X20	Y20	Z20	X21	Y21	Z21	X22	Y22	Z22	X23	Y23	Z23	X24	Y24	Z24	X25	Y25	Z25	X26	Y26	Z26	X27	Y27	Z27	X28	Y28	Z28	X29	Y29	Z29	X30	Y30	Z30	X31	Y31	Z31	X32	Y32	Z32	X33	Y33	Z33	X34	Y34	Z34	X35	Y35	Z35	X36	Y36	Z36	X37	Y37	Z37	X38	Y38	Z38	X39	Y39	Z39	X40	Y40	Z40	X41	Y41	Z41	X42	Y42	Z42	X43	Y43	Z43	X44	Y44	Z44	X45	Y45	Z45	X46	Y46	Z46	X47	Y47	Z47	X48	Y48	Z48	X49	Y49	Z49	X50	Y50	Z50	X51	Y51	Z51	X52	Y52	Z52	

54	0.53	683.9016113281251	932.752380371094	-311.5676574707032	482.7752990722657	957.770202636719	-247.3304290771485	486.0759582519532	959.6152954101565	-156.4173889160157	683.0540161132814	931.1363525390627	-78.39434051513673	606.6341552734376	872.3884277343752	-385.098602294922	747.3689575195314	480.3038330078126	-341.5665893554688	763.2556762695314	493.1916503906251	-217.4069976806641	748.9244384765626	417.562713623047	-348.4156799316407	818.591491699219	419.9406127929689	-282.3557434082032	816.5948486328127	60.54983520507814	-313.0919799804688	838.605895996094	89.18162536621095	-220.3863830566407	773.244812011719	22.50044822692871	-255.6351776123047	976.970397949219	60.7018394470215	-230.0772247314454	970.1029052734377	66.02136993408205	-287.5408935546876	945.7094726562502	34.8046989440918	-331.8323059082032	610.3873901367189	860.8691406250002	-17.70317459106446	477.6208801269532	471.0643615722657	-48.07150650024415	515.1110229492189	455.9635314941407	-170.5849914550782	441.8493652343751	428.9826965332032	-45.66145324707032	497.6134338378907	385.0612792968751	-89.30792236328126	211.6876373291016	145.3646087646485	-86.4308319091797	237.5874633789063	163.3148803710938	-179.953125	153.4973297119141	155.2910766601563	-145.8904266357422	294.9820556640626	31.6496868133545	-184.1123962402344	298.3724975585938	40.84091567993165	-128.5126953125	264.4023132324219	31.79106903076173	-78.96721649169923	546.5791015625001	1444.449340820313	-224.5026550292969	466.0617980957032	1221.379760742188	-210.2901306152344	715.3432617187501	1172.148193359375	-224.400863647461	670.4096679687501	1359.180053710938	-223.2422485351563	458.0309143066407	1248.529052734375	-323.4241333007813	494.6470031738282	1389.91796875	-300.4549560546876	532.9058837890626	1391.927124023438	-383.4651184082032	597.8171997070314	1392.0029296875	-416.4639282226564	484.6899719238282	1089.6201171875	-465.7167968750001	460.1993103027345	1100.288940429688	-383.3269653320313	442.2705383300782	1091.455078125	-432.150360107422	480.2063293457032	819.1143188476565	-431.2107238769532	425.5818481445314	852.5013427734377	-478.6399230957032	471.5545349121095	735.6939086914064	-437.9566040039064	381.2337036132813	773.292663574219	-477.9815673828126	472.8782043457032	1243.619018554688	-90.15339660644533	498.6560974121095	1386.407836914063	-133.8473205566407	558.4774169921876	1403.678588867188	-54.37926483154298	622.0636596679689	1406.471923828125	-40.86829376220704	546.2271728515626	1105.223510742188	83.24352264404298	527.6857910156251	1077.7001953125	-4.478234291076661	503.5427856445314	1067.127685546875	51.27831649780275	773.9539184570315	963.5360107421877	39.72282791137696	725.9259643554689	925.0227661132815	86.60147857666017	848.3560791015627	913.9484863281252	55.42624664306642	766.1069335937501	851.398620605469	79.20684051513673	
55	0.54	701.1896972656251	934.6135864257815	-313.1565856933594	500.2976074218751	958.600036621094	-247.9380493164063	503.7366027832032	959.949157714844	-156.7440948486328	700.6905517578126	931.9710083007815	-80.61952209472658	623.9025878906251	874.052673339844	-386.4129333496095	764.3245849609376	481.3560180664064	-341.7649230957032	779.8276367187502	494.665740966797	-217.9456176757813	764.6838989257814	418.3802795410157	-348.5684509277344	833.4343872070315	419.1898498535157	-281.9416503906251	818.8174438476565	59.55871200561525	-312.2380371093751	841.0441894531252	86.92089080810548	-219.0928344726563	773.118347167969	22.86154365539551	-255.5449981689454	978.9265747070315	52.4420738220215	-228.1458129882813	972.434753417969	59.2530975341797	-285.6950378417969	946.9520263671877	29.19892692565919	-331.2280578613282	629.8207397460939	860.7065429687502	-19.1182918548584	506.0018310546876	468.281951904297	-46.32833480834962	544.0533447265626	452.2632446289064	-168.8609161376953	469.4241333007814	427.5007934570314	-43.41071319580079	523.9990844726564	382.0507507324219	-86.94763946533205	227.3078765869141	155.2662963867188	-83.75791931152345	254.0897369384766	171.285888671875	-177.2709197998047	170.1755523681641	169.4240264892578	-143.4372863769532	299.5354003906251	35.39042663574219	-182.2474060058594	304.1303100585938	43.7254753112793	-127.3689193725586	271.1564331054688	37.02623748779298	-77.98636627197267	563.2203369140626	1445.289672851563	-227.0244903564454	482.845428466797	1222.064086914063	-212.0614929199219	732.4234008789064	1173.26025390625	-226.1946563720704	686.9840087890626	1360.115600585938	-225.3701171875001	475.182342529297	1248.75732421875	-325.8803710937501	511.3570861816407	1390.318359375	-302.8431091308594	549.2061157226564	1392.244384765625	-385.9776916503907	614.7776489257814	1392.171630859375	-418.6771850585939	502.9699707031251	1088.88671875	-467.1889648437501	478.3838500976564	1099.688110351563	-384.9136352539064	460.6438598632814	1090.420166015625	-433.6107177734376	501.4542846679689	818.538024902344	-432.0462341308595	445.9912414550782	851.1070556640627	-478.9425048828126	493.8862915039064	735.0909423828126	-438.5504760742189	402.5786437988282	771.3211059570315	-477.4866333007814	489.4922180175782	1244.684326171875	-92.15625000000001	515.3997802734376	1387.416870117188	-136.146469116211	575.2555541992189	1404.846435546875	-56.7221145629883	638.7772827148439	1407.606567382813	-43.10103607177735	560.7289428710939	1107.013427734375	81.36494445800783	542.4938354492189	1079.629760742188	-6.398757934570314	517.4397583007814	1069.92236328125	49.01876831054689	784.2837524414065	957.6790161132815	40.00706863403321	734.7225341796876	921.1134033203127	86.80057525634767	856.8552246093752	905.599792480469	56.59285736083986	772.2166748046877	846.3027343750002	80.37713623046876	
56	0.55	718.1541137695314	936.760925292969	-314.8489379882813	517.5510253906251	959.7368774414065	-248.3106536865235	521.1524658203126	960.4807128906252	-156.8452301025391	718.1104736328126	933.0242309570315	-82.96135711669923	640.6452026367189	875.9995727539065	-387.6813964843751	780.3247680664065	482.4380798339845	-342.0315246582032	795.2684326171877	496.0048217773439	-218.4542236328126	779.4562988281252	419.2926330566407	-348.7796936035157	847.2528076171877	418.4654541015626	-281.5935974121094	820.2937622070315	58.84411239624025	-311.5780944824219	842.6616821289065	85.05207824707033	-218.0079498291016	772.5659790039065	23.23482322692871	-255.6103973388672	980.1142578125002	45.0633659362793	-226.5002136230469	974.0317993164065	53.3876304626465	-284.1598815917969	947.5478515625002	24.48985671997071	-331.0065612792969	649.3355712890626	860.6757812500002	-20.54930305480957	535.8060913085939	465.5220031738282	-44.81631088256837	574.2236938476564	448.8005371093751	-167.454086303711	498.5606689453126	426.0798339843751	-41.41875076293946	551.9481811523439	379.2410888671876	-84.92989349365236	245.4075927734376	165.3696899414063	-81.36873626708986	272.9522399902344	179.3944702148438	-174.8918609619141	189.3184509277344	183.2955169677735	-141.3097839355469	307.0659790039063	39.76934814453126	-180.0330657958985	312.8016052246094	47.43854141235352	-125.8878402709961	280.8317260742188	43.22590637207032	-76.65630340576173	579.8126831054689	1446.44580078125	-229.3957672119141	499.497772216797	1223.091674804688	-213.7406158447266	749.3338012695314	1174.618774414063	-227.8509674072266	703.4605712890626	1361.34130859375	-227.3631744384766	492.2465209960939	1249.368530273438	-328.2790832519532	528.0072631835939	1391.06787109375	-305.0996093750001	565.4420166015626	1392.918090820313	-388.3612365722657	631.7503051757814	1392.6767578125	-420.7349853515626	521.6553344726564	1088.378662109375	-468.7957763671876	496.805145263672	1099.227783203125	-386.6851806640626	479.3409423828126	1089.523559570313	-435.2835693359376	523.7128295898439	818.2132568359377	-432.9823303222657	467.4077453613282	849.8131103515627	-479.4112548828126	517.4895629882814	734.7809448242189	-439.3016357421876	425.1503906250001	769.328308105469	-477.2103881835939	505.9931640625001	1246.13134765625	-94.01016235351564	532.0945434570314	1388.776977539063	-138.2990264892578	592.0031738281251	1406.323364257813	-58.93607330322267	655.4620361328126	1409.000610351563	-45.21754837036134	575.0344238281251	1109.058227539063	79.45845031738283	557.0420532226564	1081.899780273438	-8.339017868041994	531.1042480468751	1073.13037109375	46.74027633666993	793.6584472656252	951.428649902344	40.15917587280274	742.5201416015626	917.053649902344	86.89465332031251	864.125427246094	896.669616699219	57.62864685058595	777.0173950195315	841.0230712890627	81.43733978271486	
57	0.5600000000000001	734.7907104492189	939.111755371094	-316.5971679687501	534.5101928710939	961.1522216796877	-248.4913024902344	538.2841186523439	961.1851196289065	-156.7913055419922	735.2758789062501	934.2943115234377	-85.32361602783205	656.8728637695314	878.1647949218752	-388.8805541992189	795.1831665039065	483.4641113281251	-342.3522644042969	809.444519042969	497.1321716308595	-218.9146118164063	793.0718383789065	420.2173156738282	-349.0323181152344	859.9265136718752	417.7383422851564	-281.3150634765626	821.2626953125002	58.4162940979004	-311.0919799804688	843.6885375976565	83.62519836425783	-217.1266174316407	771.8901977539065	23.61032485961914	-255.7854156494141	980.776062011719	38.83185958862305	-225.1493530273438	975.127868652344	48.61938476562501	-282.9381103515626	947.7606201171877	20.82815742492676	-331.1025085449219	668.8219604492189	860.8105468750002	-21.98138809204102	566.8027954101564	462.952362060547	-43.58808135986329	605.3817138671876	445.7727661132814	-166.4294586181641	529.0435791015626	424.8434143066407	-39.76209259033204	581.2913208007814	376.7807922363282	-83.34265136718751	265.9931030273438	175.3935089111328	-79.33921051025392	294.1689147949219	187.4312744140625	-172.8908843994141	210.8458404541016	196.4705810546876	-139.5752868652344	318.0842895507813	44.64202117919923	-177.5391693115235	324.8587646484376	51.89279556274415	-124.0985794067383	293.8343200683594	50.18099212646486	-75.01345825195314	596.3333129882814	1447.878051757813	-231.5843963623047	516.0032958984376	1224.426025390625	-215.3116607666016	766.0533447265626	1176.177124023438	-229.3336944580079	719.8283081054689	1362.816162109375	-229.1978607177735	509.1903076171876	1250.339721679688	-330.5759582519532	544.5776367187501	1392.136108398438	-307.1944580078126	581.6319580078126	1393.911743164063	-390.5772705078126	648.7068481445314	1393.4970703125	-422.6145935058595	540.7224121093751	1088.088012695313	-470.5119628906251	515.4546508789064	1098.886474609375	-388.6128845214845	498.3420410156251	1088.755493164063	-437.141571044922	546.9266967773439	818.1524658203127	-434.0054626464845	489.7983703613282	848.6401977539065	-480.0462036132814	542.2981567382814	734.7861328125001	-440.2157287597657	448.9118041992189	767.3519897460939	-477.1810607910157	522.3571166992189	1247.92041015625	-95.70713043212892	548.7117919921876	1390.444702148438	-140.2845001220703	608.6820068359376	1408.07373046875	-60.99805831909181	672.0795288085939	1410.626220703125	-47.19390106201173	589.1789550781251	1111.314697265625	77.56576538085939	571.3260498046876	1084.473388671875	-10.24782085418701	544.5827636718751	1076.699584960938	44.51177978515626	802.0933227539065	944.916198730469	40.16700744628907	749.3791503906251	912.9587402343752	86.8821487426758	870.1773071289065	887.3410644531252	58.482479095459	780.602233886719	835.7124633789065	82.34954833984376	
